<?xml version="1.0" encoding="utf-8"?>
<svg version="1.1" baseProfile="full"  width="456" height="456" viewBox="0 0 456 456"
		 xmlns="http://www.w3.org/2000/svg" xmlns:xlink="http://www.w3.org/1999/xlink" xmlns:ev="http://www.w3.org/2001/xml-events">
<desc></desc>
<rect width="456" height="456" fill="#ffffff" cx="0" cy="0" />
<defs>
<rect id="p" width="8" height="8" />
</defs>
<g fill="#000000">
<use x="32" y="32" xlink:href="#p" />
<use x="32" y="40" xlink:href="#p" />
<use x="32" y="48" xlink:href="#p" />
<use x="32" y="56" xlink:href="#p" />
<use x="32" y="64" xlink:href="#p" />
<use x="32" y="72" xlink:href="#p" />
<use x="32" y="80" xlink:href="#p" />
<use x="32" y="96" xlink:href="#p" />
<use x="32" y="120" xlink:href="#p" />
<use x="32" y="128" xlink:href="#p" />
<use x="32" y="136" xlink:href="#p" />
<use x="32" y="160" xlink:href="#p" />
<use x="32" y="184" xlink:href="#p" />
<use x="32" y="192" xlink:href="#p" />
<use x="32" y="200" xlink:href="#p" />
<use x="32" y="208" xlink:href="#p" />
<use x="32" y="232" xlink:href="#p" />
<use x="32" y="240" xlink:href="#p" />
<use x="32" y="248" xlink:href="#p" />
<use x="32" y="256" xlink:href="#p" />
<use x="32" y="272" xlink:href="#p" />
<use x="32" y="280" xlink:href="#p" />
<use x="32" y="288" xlink:href="#p" />
<use x="32" y="312" xlink:href="#p" />
<use x="32" y="328" xlink:href="#p" />
<use x="32" y="352" xlink:href="#p" />
<use x="32" y="368" xlink:href="#p" />
<use x="32" y="376" xlink:href="#p" />
<use x="32" y="384" xlink:href="#p" />
<use x="32" y="392" xlink:href="#p" />
<use x="32" y="400" xlink:href="#p" />
<use x="32" y="408" xlink:href="#p" />
<use x="32" y="416" xlink:href="#p" />
<use x="40" y="32" xlink:href="#p" />
<use x="40" y="80" xlink:href="#p" />
<use x="40" y="96" xlink:href="#p" />
<use x="40" y="112" xlink:href="#p" />
<use x="40" y="128" xlink:href="#p" />
<use x="40" y="144" xlink:href="#p" />
<use x="40" y="152" xlink:href="#p" />
<use x="40" y="160" xlink:href="#p" />
<use x="40" y="168" xlink:href="#p" />
<use x="40" y="176" xlink:href="#p" />
<use x="40" y="184" xlink:href="#p" />
<use x="40" y="192" xlink:href="#p" />
<use x="40" y="200" xlink:href="#p" />
<use x="40" y="240" xlink:href="#p" />
<use x="40" y="264" xlink:href="#p" />
<use x="40" y="280" xlink:href="#p" />
<use x="40" y="288" xlink:href="#p" />
<use x="40" y="296" xlink:href="#p" />
<use x="40" y="320" xlink:href="#p" />
<use x="40" y="336" xlink:href="#p" />
<use x="40" y="344" xlink:href="#p" />
<use x="40" y="352" xlink:href="#p" />
<use x="40" y="368" xlink:href="#p" />
<use x="40" y="416" xlink:href="#p" />
<use x="48" y="32" xlink:href="#p" />
<use x="48" y="48" xlink:href="#p" />
<use x="48" y="56" xlink:href="#p" />
<use x="48" y="64" xlink:href="#p" />
<use x="48" y="80" xlink:href="#p" />
<use x="48" y="96" xlink:href="#p" />
<use x="48" y="104" xlink:href="#p" />
<use x="48" y="136" xlink:href="#p" />
<use x="48" y="144" xlink:href="#p" />
<use x="48" y="152" xlink:href="#p" />
<use x="48" y="160" xlink:href="#p" />
<use x="48" y="168" xlink:href="#p" />
<use x="48" y="184" xlink:href="#p" />
<use x="48" y="192" xlink:href="#p" />
<use x="48" y="208" xlink:href="#p" />
<use x="48" y="224" xlink:href="#p" />
<use x="48" y="232" xlink:href="#p" />
<use x="48" y="248" xlink:href="#p" />
<use x="48" y="272" xlink:href="#p" />
<use x="48" y="312" xlink:href="#p" />
<use x="48" y="320" xlink:href="#p" />
<use x="48" y="344" xlink:href="#p" />
<use x="48" y="352" xlink:href="#p" />
<use x="48" y="368" xlink:href="#p" />
<use x="48" y="384" xlink:href="#p" />
<use x="48" y="392" xlink:href="#p" />
<use x="48" y="400" xlink:href="#p" />
<use x="48" y="416" xlink:href="#p" />
<use x="56" y="32" xlink:href="#p" />
<use x="56" y="48" xlink:href="#p" />
<use x="56" y="56" xlink:href="#p" />
<use x="56" y="64" xlink:href="#p" />
<use x="56" y="80" xlink:href="#p" />
<use x="56" y="96" xlink:href="#p" />
<use x="56" y="104" xlink:href="#p" />
<use x="56" y="120" xlink:href="#p" />
<use x="56" y="144" xlink:href="#p" />
<use x="56" y="160" xlink:href="#p" />
<use x="56" y="168" xlink:href="#p" />
<use x="56" y="192" xlink:href="#p" />
<use x="56" y="200" xlink:href="#p" />
<use x="56" y="208" xlink:href="#p" />
<use x="56" y="216" xlink:href="#p" />
<use x="56" y="248" xlink:href="#p" />
<use x="56" y="272" xlink:href="#p" />
<use x="56" y="280" xlink:href="#p" />
<use x="56" y="288" xlink:href="#p" />
<use x="56" y="296" xlink:href="#p" />
<use x="56" y="328" xlink:href="#p" />
<use x="56" y="344" xlink:href="#p" />
<use x="56" y="368" xlink:href="#p" />
<use x="56" y="384" xlink:href="#p" />
<use x="56" y="392" xlink:href="#p" />
<use x="56" y="400" xlink:href="#p" />
<use x="56" y="416" xlink:href="#p" />
<use x="64" y="32" xlink:href="#p" />
<use x="64" y="48" xlink:href="#p" />
<use x="64" y="56" xlink:href="#p" />
<use x="64" y="64" xlink:href="#p" />
<use x="64" y="80" xlink:href="#p" />
<use x="64" y="104" xlink:href="#p" />
<use x="64" y="112" xlink:href="#p" />
<use x="64" y="128" xlink:href="#p" />
<use x="64" y="136" xlink:href="#p" />
<use x="64" y="160" xlink:href="#p" />
<use x="64" y="176" xlink:href="#p" />
<use x="64" y="192" xlink:href="#p" />
<use x="64" y="200" xlink:href="#p" />
<use x="64" y="208" xlink:href="#p" />
<use x="64" y="216" xlink:href="#p" />
<use x="64" y="224" xlink:href="#p" />
<use x="64" y="232" xlink:href="#p" />
<use x="64" y="240" xlink:href="#p" />
<use x="64" y="272" xlink:href="#p" />
<use x="64" y="280" xlink:href="#p" />
<use x="64" y="296" xlink:href="#p" />
<use x="64" y="320" xlink:href="#p" />
<use x="64" y="328" xlink:href="#p" />
<use x="64" y="368" xlink:href="#p" />
<use x="64" y="384" xlink:href="#p" />
<use x="64" y="392" xlink:href="#p" />
<use x="64" y="400" xlink:href="#p" />
<use x="64" y="416" xlink:href="#p" />
<use x="72" y="32" xlink:href="#p" />
<use x="72" y="80" xlink:href="#p" />
<use x="72" y="104" xlink:href="#p" />
<use x="72" y="120" xlink:href="#p" />
<use x="72" y="128" xlink:href="#p" />
<use x="72" y="136" xlink:href="#p" />
<use x="72" y="144" xlink:href="#p" />
<use x="72" y="152" xlink:href="#p" />
<use x="72" y="168" xlink:href="#p" />
<use x="72" y="176" xlink:href="#p" />
<use x="72" y="184" xlink:href="#p" />
<use x="72" y="192" xlink:href="#p" />
<use x="72" y="208" xlink:href="#p" />
<use x="72" y="240" xlink:href="#p" />
<use x="72" y="256" xlink:href="#p" />
<use x="72" y="264" xlink:href="#p" />
<use x="72" y="272" xlink:href="#p" />
<use x="72" y="288" xlink:href="#p" />
<use x="72" y="304" xlink:href="#p" />
<use x="72" y="336" xlink:href="#p" />
<use x="72" y="368" xlink:href="#p" />
<use x="72" y="416" xlink:href="#p" />
<use x="80" y="32" xlink:href="#p" />
<use x="80" y="40" xlink:href="#p" />
<use x="80" y="48" xlink:href="#p" />
<use x="80" y="56" xlink:href="#p" />
<use x="80" y="64" xlink:href="#p" />
<use x="80" y="72" xlink:href="#p" />
<use x="80" y="80" xlink:href="#p" />
<use x="80" y="96" xlink:href="#p" />
<use x="80" y="112" xlink:href="#p" />
<use x="80" y="128" xlink:href="#p" />
<use x="80" y="144" xlink:href="#p" />
<use x="80" y="160" xlink:href="#p" />
<use x="80" y="176" xlink:href="#p" />
<use x="80" y="192" xlink:href="#p" />
<use x="80" y="208" xlink:href="#p" />
<use x="80" y="224" xlink:href="#p" />
<use x="80" y="240" xlink:href="#p" />
<use x="80" y="256" xlink:href="#p" />
<use x="80" y="272" xlink:href="#p" />
<use x="80" y="288" xlink:href="#p" />
<use x="80" y="304" xlink:href="#p" />
<use x="80" y="320" xlink:href="#p" />
<use x="80" y="336" xlink:href="#p" />
<use x="80" y="352" xlink:href="#p" />
<use x="80" y="368" xlink:href="#p" />
<use x="80" y="376" xlink:href="#p" />
<use x="80" y="384" xlink:href="#p" />
<use x="80" y="392" xlink:href="#p" />
<use x="80" y="400" xlink:href="#p" />
<use x="80" y="408" xlink:href="#p" />
<use x="80" y="416" xlink:href="#p" />
<use x="88" y="120" xlink:href="#p" />
<use x="88" y="144" xlink:href="#p" />
<use x="88" y="152" xlink:href="#p" />
<use x="88" y="192" xlink:href="#p" />
<use x="88" y="208" xlink:href="#p" />
<use x="88" y="240" xlink:href="#p" />
<use x="88" y="248" xlink:href="#p" />
<use x="88" y="256" xlink:href="#p" />
<use x="88" y="264" xlink:href="#p" />
<use x="88" y="272" xlink:href="#p" />
<use x="88" y="296" xlink:href="#p" />
<use x="88" y="304" xlink:href="#p" />
<use x="88" y="344" xlink:href="#p" />
<use x="88" y="352" xlink:href="#p" />
<use x="96" y="32" xlink:href="#p" />
<use x="96" y="48" xlink:href="#p" />
<use x="96" y="56" xlink:href="#p" />
<use x="96" y="64" xlink:href="#p" />
<use x="96" y="80" xlink:href="#p" />
<use x="96" y="96" xlink:href="#p" />
<use x="96" y="112" xlink:href="#p" />
<use x="96" y="120" xlink:href="#p" />
<use x="96" y="136" xlink:href="#p" />
<use x="96" y="144" xlink:href="#p" />
<use x="96" y="160" xlink:href="#p" />
<use x="96" y="176" xlink:href="#p" />
<use x="96" y="184" xlink:href="#p" />
<use x="96" y="192" xlink:href="#p" />
<use x="96" y="208" xlink:href="#p" />
<use x="96" y="216" xlink:href="#p" />
<use x="96" y="224" xlink:href="#p" />
<use x="96" y="232" xlink:href="#p" />
<use x="96" y="240" xlink:href="#p" />
<use x="96" y="280" xlink:href="#p" />
<use x="96" y="296" xlink:href="#p" />
<use x="96" y="304" xlink:href="#p" />
<use x="96" y="320" xlink:href="#p" />
<use x="96" y="336" xlink:href="#p" />
<use x="96" y="360" xlink:href="#p" />
<use x="96" y="392" xlink:href="#p" />
<use x="96" y="400" xlink:href="#p" />
<use x="96" y="408" xlink:href="#p" />
<use x="96" y="416" xlink:href="#p" />
<use x="104" y="32" xlink:href="#p" />
<use x="104" y="40" xlink:href="#p" />
<use x="104" y="48" xlink:href="#p" />
<use x="104" y="56" xlink:href="#p" />
<use x="104" y="64" xlink:href="#p" />
<use x="104" y="88" xlink:href="#p" />
<use x="104" y="96" xlink:href="#p" />
<use x="104" y="112" xlink:href="#p" />
<use x="104" y="136" xlink:href="#p" />
<use x="104" y="152" xlink:href="#p" />
<use x="104" y="168" xlink:href="#p" />
<use x="104" y="184" xlink:href="#p" />
<use x="104" y="192" xlink:href="#p" />
<use x="104" y="216" xlink:href="#p" />
<use x="104" y="248" xlink:href="#p" />
<use x="104" y="256" xlink:href="#p" />
<use x="104" y="264" xlink:href="#p" />
<use x="104" y="288" xlink:href="#p" />
<use x="104" y="328" xlink:href="#p" />
<use x="104" y="344" xlink:href="#p" />
<use x="104" y="352" xlink:href="#p" />
<use x="104" y="368" xlink:href="#p" />
<use x="104" y="400" xlink:href="#p" />
<use x="104" y="408" xlink:href="#p" />
<use x="112" y="32" xlink:href="#p" />
<use x="112" y="40" xlink:href="#p" />
<use x="112" y="56" xlink:href="#p" />
<use x="112" y="64" xlink:href="#p" />
<use x="112" y="80" xlink:href="#p" />
<use x="112" y="88" xlink:href="#p" />
<use x="112" y="104" xlink:href="#p" />
<use x="112" y="112" xlink:href="#p" />
<use x="112" y="128" xlink:href="#p" />
<use x="112" y="144" xlink:href="#p" />
<use x="112" y="160" xlink:href="#p" />
<use x="112" y="168" xlink:href="#p" />
<use x="112" y="176" xlink:href="#p" />
<use x="112" y="184" xlink:href="#p" />
<use x="112" y="200" xlink:href="#p" />
<use x="112" y="216" xlink:href="#p" />
<use x="112" y="232" xlink:href="#p" />
<use x="112" y="240" xlink:href="#p" />
<use x="112" y="264" xlink:href="#p" />
<use x="112" y="272" xlink:href="#p" />
<use x="112" y="280" xlink:href="#p" />
<use x="112" y="288" xlink:href="#p" />
<use x="112" y="296" xlink:href="#p" />
<use x="112" y="336" xlink:href="#p" />
<use x="112" y="344" xlink:href="#p" />
<use x="112" y="384" xlink:href="#p" />
<use x="112" y="416" xlink:href="#p" />
<use x="120" y="56" xlink:href="#p" />
<use x="120" y="64" xlink:href="#p" />
<use x="120" y="88" xlink:href="#p" />
<use x="120" y="104" xlink:href="#p" />
<use x="120" y="120" xlink:href="#p" />
<use x="120" y="144" xlink:href="#p" />
<use x="120" y="152" xlink:href="#p" />
<use x="120" y="160" xlink:href="#p" />
<use x="120" y="168" xlink:href="#p" />
<use x="120" y="176" xlink:href="#p" />
<use x="120" y="184" xlink:href="#p" />
<use x="120" y="200" xlink:href="#p" />
<use x="120" y="216" xlink:href="#p" />
<use x="120" y="240" xlink:href="#p" />
<use x="120" y="248" xlink:href="#p" />
<use x="120" y="256" xlink:href="#p" />
<use x="120" y="264" xlink:href="#p" />
<use x="120" y="272" xlink:href="#p" />
<use x="120" y="280" xlink:href="#p" />
<use x="120" y="288" xlink:href="#p" />
<use x="120" y="296" xlink:href="#p" />
<use x="120" y="312" xlink:href="#p" />
<use x="120" y="320" xlink:href="#p" />
<use x="120" y="328" xlink:href="#p" />
<use x="120" y="336" xlink:href="#p" />
<use x="120" y="360" xlink:href="#p" />
<use x="120" y="376" xlink:href="#p" />
<use x="120" y="392" xlink:href="#p" />
<use x="120" y="400" xlink:href="#p" />
<use x="120" y="408" xlink:href="#p" />
<use x="120" y="416" xlink:href="#p" />
<use x="128" y="32" xlink:href="#p" />
<use x="128" y="48" xlink:href="#p" />
<use x="128" y="56" xlink:href="#p" />
<use x="128" y="64" xlink:href="#p" />
<use x="128" y="80" xlink:href="#p" />
<use x="128" y="88" xlink:href="#p" />
<use x="128" y="96" xlink:href="#p" />
<use x="128" y="104" xlink:href="#p" />
<use x="128" y="112" xlink:href="#p" />
<use x="128" y="128" xlink:href="#p" />
<use x="128" y="144" xlink:href="#p" />
<use x="128" y="160" xlink:href="#p" />
<use x="128" y="184" xlink:href="#p" />
<use x="128" y="192" xlink:href="#p" />
<use x="128" y="200" xlink:href="#p" />
<use x="128" y="208" xlink:href="#p" />
<use x="128" y="216" xlink:href="#p" />
<use x="128" y="232" xlink:href="#p" />
<use x="128" y="240" xlink:href="#p" />
<use x="128" y="248" xlink:href="#p" />
<use x="128" y="264" xlink:href="#p" />
<use x="128" y="272" xlink:href="#p" />
<use x="128" y="320" xlink:href="#p" />
<use x="128" y="344" xlink:href="#p" />
<use x="128" y="352" xlink:href="#p" />
<use x="128" y="368" xlink:href="#p" />
<use x="128" y="376" xlink:href="#p" />
<use x="128" y="400" xlink:href="#p" />
<use x="128" y="408" xlink:href="#p" />
<use x="136" y="32" xlink:href="#p" />
<use x="136" y="40" xlink:href="#p" />
<use x="136" y="48" xlink:href="#p" />
<use x="136" y="56" xlink:href="#p" />
<use x="136" y="72" xlink:href="#p" />
<use x="136" y="88" xlink:href="#p" />
<use x="136" y="136" xlink:href="#p" />
<use x="136" y="152" xlink:href="#p" />
<use x="136" y="160" xlink:href="#p" />
<use x="136" y="168" xlink:href="#p" />
<use x="136" y="176" xlink:href="#p" />
<use x="136" y="208" xlink:href="#p" />
<use x="136" y="224" xlink:href="#p" />
<use x="136" y="232" xlink:href="#p" />
<use x="136" y="240" xlink:href="#p" />
<use x="136" y="248" xlink:href="#p" />
<use x="136" y="280" xlink:href="#p" />
<use x="136" y="304" xlink:href="#p" />
<use x="136" y="312" xlink:href="#p" />
<use x="136" y="320" xlink:href="#p" />
<use x="136" y="336" xlink:href="#p" />
<use x="136" y="344" xlink:href="#p" />
<use x="136" y="352" xlink:href="#p" />
<use x="136" y="360" xlink:href="#p" />
<use x="136" y="376" xlink:href="#p" />
<use x="136" y="384" xlink:href="#p" />
<use x="136" y="392" xlink:href="#p" />
<use x="136" y="400" xlink:href="#p" />
<use x="136" y="408" xlink:href="#p" />
<use x="144" y="32" xlink:href="#p" />
<use x="144" y="48" xlink:href="#p" />
<use x="144" y="56" xlink:href="#p" />
<use x="144" y="64" xlink:href="#p" />
<use x="144" y="72" xlink:href="#p" />
<use x="144" y="80" xlink:href="#p" />
<use x="144" y="88" xlink:href="#p" />
<use x="144" y="104" xlink:href="#p" />
<use x="144" y="112" xlink:href="#p" />
<use x="144" y="136" xlink:href="#p" />
<use x="144" y="144" xlink:href="#p" />
<use x="144" y="152" xlink:href="#p" />
<use x="144" y="160" xlink:href="#p" />
<use x="144" y="168" xlink:href="#p" />
<use x="144" y="176" xlink:href="#p" />
<use x="144" y="192" xlink:href="#p" />
<use x="144" y="208" xlink:href="#p" />
<use x="144" y="256" xlink:href="#p" />
<use x="144" y="280" xlink:href="#p" />
<use x="144" y="296" xlink:href="#p" />
<use x="144" y="312" xlink:href="#p" />
<use x="144" y="320" xlink:href="#p" />
<use x="144" y="328" xlink:href="#p" />
<use x="144" y="352" xlink:href="#p" />
<use x="144" y="376" xlink:href="#p" />
<use x="144" y="400" xlink:href="#p" />
<use x="144" y="408" xlink:href="#p" />
<use x="152" y="40" xlink:href="#p" />
<use x="152" y="56" xlink:href="#p" />
<use x="152" y="72" xlink:href="#p" />
<use x="152" y="88" xlink:href="#p" />
<use x="152" y="112" xlink:href="#p" />
<use x="152" y="144" xlink:href="#p" />
<use x="152" y="152" xlink:href="#p" />
<use x="152" y="176" xlink:href="#p" />
<use x="152" y="208" xlink:href="#p" />
<use x="152" y="224" xlink:href="#p" />
<use x="152" y="232" xlink:href="#p" />
<use x="152" y="240" xlink:href="#p" />
<use x="152" y="248" xlink:href="#p" />
<use x="152" y="256" xlink:href="#p" />
<use x="152" y="264" xlink:href="#p" />
<use x="152" y="280" xlink:href="#p" />
<use x="152" y="304" xlink:href="#p" />
<use x="152" y="320" xlink:href="#p" />
<use x="152" y="328" xlink:href="#p" />
<use x="152" y="352" xlink:href="#p" />
<use x="152" y="360" xlink:href="#p" />
<use x="152" y="368" xlink:href="#p" />
<use x="152" y="376" xlink:href="#p" />
<use x="152" y="400" xlink:href="#p" />
<use x="152" y="408" xlink:href="#p" />
<use x="160" y="72" xlink:href="#p" />
<use x="160" y="80" xlink:href="#p" />
<use x="160" y="88" xlink:href="#p" />
<use x="160" y="112" xlink:href="#p" />
<use x="160" y="128" xlink:href="#p" />
<use x="160" y="144" xlink:href="#p" />
<use x="160" y="152" xlink:href="#p" />
<use x="160" y="160" xlink:href="#p" />
<use x="160" y="168" xlink:href="#p" />
<use x="160" y="176" xlink:href="#p" />
<use x="160" y="192" xlink:href="#p" />
<use x="160" y="224" xlink:href="#p" />
<use x="160" y="248" xlink:href="#p" />
<use x="160" y="256" xlink:href="#p" />
<use x="160" y="264" xlink:href="#p" />
<use x="160" y="272" xlink:href="#p" />
<use x="160" y="304" xlink:href="#p" />
<use x="160" y="312" xlink:href="#p" />
<use x="160" y="336" xlink:href="#p" />
<use x="160" y="360" xlink:href="#p" />
<use x="160" y="368" xlink:href="#p" />
<use x="160" y="400" xlink:href="#p" />
<use x="160" y="408" xlink:href="#p" />
<use x="160" y="416" xlink:href="#p" />
<use x="168" y="40" xlink:href="#p" />
<use x="168" y="56" xlink:href="#p" />
<use x="168" y="64" xlink:href="#p" />
<use x="168" y="72" xlink:href="#p" />
<use x="168" y="88" xlink:href="#p" />
<use x="168" y="96" xlink:href="#p" />
<use x="168" y="128" xlink:href="#p" />
<use x="168" y="136" xlink:href="#p" />
<use x="168" y="168" xlink:href="#p" />
<use x="168" y="192" xlink:href="#p" />
<use x="168" y="200" xlink:href="#p" />
<use x="168" y="208" xlink:href="#p" />
<use x="168" y="216" xlink:href="#p" />
<use x="168" y="224" xlink:href="#p" />
<use x="168" y="232" xlink:href="#p" />
<use x="168" y="280" xlink:href="#p" />
<use x="168" y="296" xlink:href="#p" />
<use x="168" y="304" xlink:href="#p" />
<use x="168" y="312" xlink:href="#p" />
<use x="168" y="328" xlink:href="#p" />
<use x="168" y="336" xlink:href="#p" />
<use x="168" y="360" xlink:href="#p" />
<use x="168" y="368" xlink:href="#p" />
<use x="168" y="384" xlink:href="#p" />
<use x="168" y="392" xlink:href="#p" />
<use x="168" y="400" xlink:href="#p" />
<use x="176" y="40" xlink:href="#p" />
<use x="176" y="56" xlink:href="#p" />
<use x="176" y="64" xlink:href="#p" />
<use x="176" y="72" xlink:href="#p" />
<use x="176" y="80" xlink:href="#p" />
<use x="176" y="88" xlink:href="#p" />
<use x="176" y="128" xlink:href="#p" />
<use x="176" y="136" xlink:href="#p" />
<use x="176" y="168" xlink:href="#p" />
<use x="176" y="176" xlink:href="#p" />
<use x="176" y="224" xlink:href="#p" />
<use x="176" y="232" xlink:href="#p" />
<use x="176" y="240" xlink:href="#p" />
<use x="176" y="320" xlink:href="#p" />
<use x="176" y="328" xlink:href="#p" />
<use x="176" y="344" xlink:href="#p" />
<use x="176" y="360" xlink:href="#p" />
<use x="176" y="376" xlink:href="#p" />
<use x="176" y="400" xlink:href="#p" />
<use x="176" y="408" xlink:href="#p" />
<use x="176" y="416" xlink:href="#p" />
<use x="184" y="32" xlink:href="#p" />
<use x="184" y="56" xlink:href="#p" />
<use x="184" y="64" xlink:href="#p" />
<use x="184" y="88" xlink:href="#p" />
<use x="184" y="104" xlink:href="#p" />
<use x="184" y="136" xlink:href="#p" />
<use x="184" y="152" xlink:href="#p" />
<use x="184" y="160" xlink:href="#p" />
<use x="184" y="176" xlink:href="#p" />
<use x="184" y="200" xlink:href="#p" />
<use x="184" y="216" xlink:href="#p" />
<use x="184" y="232" xlink:href="#p" />
<use x="184" y="240" xlink:href="#p" />
<use x="184" y="248" xlink:href="#p" />
<use x="184" y="272" xlink:href="#p" />
<use x="184" y="280" xlink:href="#p" />
<use x="184" y="296" xlink:href="#p" />
<use x="184" y="312" xlink:href="#p" />
<use x="184" y="320" xlink:href="#p" />
<use x="184" y="376" xlink:href="#p" />
<use x="184" y="392" xlink:href="#p" />
<use x="184" y="416" xlink:href="#p" />
<use x="192" y="40" xlink:href="#p" />
<use x="192" y="64" xlink:href="#p" />
<use x="192" y="72" xlink:href="#p" />
<use x="192" y="80" xlink:href="#p" />
<use x="192" y="112" xlink:href="#p" />
<use x="192" y="128" xlink:href="#p" />
<use x="192" y="136" xlink:href="#p" />
<use x="192" y="160" xlink:href="#p" />
<use x="192" y="184" xlink:href="#p" />
<use x="192" y="208" xlink:href="#p" />
<use x="192" y="216" xlink:href="#p" />
<use x="192" y="232" xlink:href="#p" />
<use x="192" y="240" xlink:href="#p" />
<use x="192" y="256" xlink:href="#p" />
<use x="192" y="272" xlink:href="#p" />
<use x="192" y="280" xlink:href="#p" />
<use x="192" y="288" xlink:href="#p" />
<use x="192" y="320" xlink:href="#p" />
<use x="192" y="328" xlink:href="#p" />
<use x="192" y="336" xlink:href="#p" />
<use x="192" y="352" xlink:href="#p" />
<use x="192" y="376" xlink:href="#p" />
<use x="192" y="400" xlink:href="#p" />
<use x="192" y="416" xlink:href="#p" />
<use x="200" y="40" xlink:href="#p" />
<use x="200" y="56" xlink:href="#p" />
<use x="200" y="72" xlink:href="#p" />
<use x="200" y="136" xlink:href="#p" />
<use x="200" y="144" xlink:href="#p" />
<use x="200" y="184" xlink:href="#p" />
<use x="200" y="208" xlink:href="#p" />
<use x="200" y="224" xlink:href="#p" />
<use x="200" y="232" xlink:href="#p" />
<use x="200" y="256" xlink:href="#p" />
<use x="200" y="288" xlink:href="#p" />
<use x="200" y="296" xlink:href="#p" />
<use x="200" y="312" xlink:href="#p" />
<use x="200" y="320" xlink:href="#p" />
<use x="200" y="360" xlink:href="#p" />
<use x="200" y="368" xlink:href="#p" />
<use x="200" y="408" xlink:href="#p" />
<use x="200" y="416" xlink:href="#p" />
<use x="208" y="40" xlink:href="#p" />
<use x="208" y="48" xlink:href="#p" />
<use x="208" y="56" xlink:href="#p" />
<use x="208" y="64" xlink:href="#p" />
<use x="208" y="72" xlink:href="#p" />
<use x="208" y="80" xlink:href="#p" />
<use x="208" y="88" xlink:href="#p" />
<use x="208" y="96" xlink:href="#p" />
<use x="208" y="120" xlink:href="#p" />
<use x="208" y="128" xlink:href="#p" />
<use x="208" y="160" xlink:href="#p" />
<use x="208" y="168" xlink:href="#p" />
<use x="208" y="192" xlink:href="#p" />
<use x="208" y="208" xlink:href="#p" />
<use x="208" y="216" xlink:href="#p" />
<use x="208" y="224" xlink:href="#p" />
<use x="208" y="232" xlink:href="#p" />
<use x="208" y="240" xlink:href="#p" />
<use x="208" y="264" xlink:href="#p" />
<use x="208" y="272" xlink:href="#p" />
<use x="208" y="296" xlink:href="#p" />
<use x="208" y="304" xlink:href="#p" />
<use x="208" y="312" xlink:href="#p" />
<use x="208" y="320" xlink:href="#p" />
<use x="208" y="328" xlink:href="#p" />
<use x="208" y="352" xlink:href="#p" />
<use x="208" y="360" xlink:href="#p" />
<use x="208" y="368" xlink:href="#p" />
<use x="208" y="376" xlink:href="#p" />
<use x="208" y="384" xlink:href="#p" />
<use x="208" y="392" xlink:href="#p" />
<use x="208" y="408" xlink:href="#p" />
<use x="216" y="32" xlink:href="#p" />
<use x="216" y="56" xlink:href="#p" />
<use x="216" y="64" xlink:href="#p" />
<use x="216" y="96" xlink:href="#p" />
<use x="216" y="104" xlink:href="#p" />
<use x="216" y="128" xlink:href="#p" />
<use x="216" y="144" xlink:href="#p" />
<use x="216" y="152" xlink:href="#p" />
<use x="216" y="192" xlink:href="#p" />
<use x="216" y="200" xlink:href="#p" />
<use x="216" y="208" xlink:href="#p" />
<use x="216" y="240" xlink:href="#p" />
<use x="216" y="264" xlink:href="#p" />
<use x="216" y="280" xlink:href="#p" />
<use x="216" y="288" xlink:href="#p" />
<use x="216" y="296" xlink:href="#p" />
<use x="216" y="320" xlink:href="#p" />
<use x="216" y="336" xlink:href="#p" />
<use x="216" y="344" xlink:href="#p" />
<use x="216" y="352" xlink:href="#p" />
<use x="216" y="384" xlink:href="#p" />
<use x="216" y="392" xlink:href="#p" />
<use x="216" y="408" xlink:href="#p" />
<use x="224" y="48" xlink:href="#p" />
<use x="224" y="56" xlink:href="#p" />
<use x="224" y="64" xlink:href="#p" />
<use x="224" y="80" xlink:href="#p" />
<use x="224" y="96" xlink:href="#p" />
<use x="224" y="104" xlink:href="#p" />
<use x="224" y="120" xlink:href="#p" />
<use x="224" y="128" xlink:href="#p" />
<use x="224" y="168" xlink:href="#p" />
<use x="224" y="176" xlink:href="#p" />
<use x="224" y="184" xlink:href="#p" />
<use x="224" y="208" xlink:href="#p" />
<use x="224" y="224" xlink:href="#p" />
<use x="224" y="240" xlink:href="#p" />
<use x="224" y="248" xlink:href="#p" />
<use x="224" y="280" xlink:href="#p" />
<use x="224" y="296" xlink:href="#p" />
<use x="224" y="304" xlink:href="#p" />
<use x="224" y="320" xlink:href="#p" />
<use x="224" y="344" xlink:href="#p" />
<use x="224" y="352" xlink:href="#p" />
<use x="224" y="368" xlink:href="#p" />
<use x="224" y="384" xlink:href="#p" />
<use x="224" y="392" xlink:href="#p" />
<use x="224" y="408" xlink:href="#p" />
<use x="224" y="416" xlink:href="#p" />
<use x="232" y="32" xlink:href="#p" />
<use x="232" y="48" xlink:href="#p" />
<use x="232" y="64" xlink:href="#p" />
<use x="232" y="96" xlink:href="#p" />
<use x="232" y="104" xlink:href="#p" />
<use x="232" y="120" xlink:href="#p" />
<use x="232" y="128" xlink:href="#p" />
<use x="232" y="136" xlink:href="#p" />
<use x="232" y="160" xlink:href="#p" />
<use x="232" y="184" xlink:href="#p" />
<use x="232" y="192" xlink:href="#p" />
<use x="232" y="200" xlink:href="#p" />
<use x="232" y="208" xlink:href="#p" />
<use x="232" y="240" xlink:href="#p" />
<use x="232" y="256" xlink:href="#p" />
<use x="232" y="272" xlink:href="#p" />
<use x="232" y="288" xlink:href="#p" />
<use x="232" y="304" xlink:href="#p" />
<use x="232" y="344" xlink:href="#p" />
<use x="232" y="352" xlink:href="#p" />
<use x="232" y="384" xlink:href="#p" />
<use x="240" y="40" xlink:href="#p" />
<use x="240" y="48" xlink:href="#p" />
<use x="240" y="64" xlink:href="#p" />
<use x="240" y="72" xlink:href="#p" />
<use x="240" y="80" xlink:href="#p" />
<use x="240" y="88" xlink:href="#p" />
<use x="240" y="96" xlink:href="#p" />
<use x="240" y="112" xlink:href="#p" />
<use x="240" y="128" xlink:href="#p" />
<use x="240" y="136" xlink:href="#p" />
<use x="240" y="160" xlink:href="#p" />
<use x="240" y="176" xlink:href="#p" />
<use x="240" y="184" xlink:href="#p" />
<use x="240" y="208" xlink:href="#p" />
<use x="240" y="216" xlink:href="#p" />
<use x="240" y="224" xlink:href="#p" />
<use x="240" y="232" xlink:href="#p" />
<use x="240" y="240" xlink:href="#p" />
<use x="240" y="256" xlink:href="#p" />
<use x="240" y="264" xlink:href="#p" />
<use x="240" y="288" xlink:href="#p" />
<use x="240" y="296" xlink:href="#p" />
<use x="240" y="304" xlink:href="#p" />
<use x="240" y="312" xlink:href="#p" />
<use x="240" y="320" xlink:href="#p" />
<use x="240" y="328" xlink:href="#p" />
<use x="240" y="344" xlink:href="#p" />
<use x="240" y="352" xlink:href="#p" />
<use x="240" y="360" xlink:href="#p" />
<use x="240" y="368" xlink:href="#p" />
<use x="240" y="376" xlink:href="#p" />
<use x="240" y="384" xlink:href="#p" />
<use x="240" y="400" xlink:href="#p" />
<use x="248" y="40" xlink:href="#p" />
<use x="248" y="48" xlink:href="#p" />
<use x="248" y="64" xlink:href="#p" />
<use x="248" y="104" xlink:href="#p" />
<use x="248" y="112" xlink:href="#p" />
<use x="248" y="144" xlink:href="#p" />
<use x="248" y="184" xlink:href="#p" />
<use x="248" y="192" xlink:href="#p" />
<use x="248" y="208" xlink:href="#p" />
<use x="248" y="216" xlink:href="#p" />
<use x="248" y="224" xlink:href="#p" />
<use x="248" y="248" xlink:href="#p" />
<use x="248" y="256" xlink:href="#p" />
<use x="248" y="288" xlink:href="#p" />
<use x="248" y="312" xlink:href="#p" />
<use x="248" y="336" xlink:href="#p" />
<use x="248" y="368" xlink:href="#p" />
<use x="248" y="384" xlink:href="#p" />
<use x="248" y="392" xlink:href="#p" />
<use x="248" y="408" xlink:href="#p" />
<use x="256" y="32" xlink:href="#p" />
<use x="256" y="40" xlink:href="#p" />
<use x="256" y="48" xlink:href="#p" />
<use x="256" y="64" xlink:href="#p" />
<use x="256" y="80" xlink:href="#p" />
<use x="256" y="88" xlink:href="#p" />
<use x="256" y="96" xlink:href="#p" />
<use x="256" y="104" xlink:href="#p" />
<use x="256" y="144" xlink:href="#p" />
<use x="256" y="152" xlink:href="#p" />
<use x="256" y="184" xlink:href="#p" />
<use x="256" y="192" xlink:href="#p" />
<use x="256" y="232" xlink:href="#p" />
<use x="256" y="240" xlink:href="#p" />
<use x="256" y="248" xlink:href="#p" />
<use x="256" y="264" xlink:href="#p" />
<use x="256" y="280" xlink:href="#p" />
<use x="256" y="288" xlink:href="#p" />
<use x="256" y="296" xlink:href="#p" />
<use x="256" y="312" xlink:href="#p" />
<use x="256" y="344" xlink:href="#p" />
<use x="256" y="360" xlink:href="#p" />
<use x="256" y="376" xlink:href="#p" />
<use x="256" y="384" xlink:href="#p" />
<use x="256" y="400" xlink:href="#p" />
<use x="264" y="88" xlink:href="#p" />
<use x="264" y="96" xlink:href="#p" />
<use x="264" y="104" xlink:href="#p" />
<use x="264" y="112" xlink:href="#p" />
<use x="264" y="128" xlink:href="#p" />
<use x="264" y="144" xlink:href="#p" />
<use x="264" y="152" xlink:href="#p" />
<use x="264" y="168" xlink:href="#p" />
<use x="264" y="256" xlink:href="#p" />
<use x="264" y="272" xlink:href="#p" />
<use x="264" y="288" xlink:href="#p" />
<use x="264" y="296" xlink:href="#p" />
<use x="264" y="304" xlink:href="#p" />
<use x="264" y="328" xlink:href="#p" />
<use x="264" y="336" xlink:href="#p" />
<use x="264" y="344" xlink:href="#p" />
<use x="264" y="360" xlink:href="#p" />
<use x="264" y="368" xlink:href="#p" />
<use x="264" y="376" xlink:href="#p" />
<use x="264" y="384" xlink:href="#p" />
<use x="264" y="392" xlink:href="#p" />
<use x="272" y="32" xlink:href="#p" />
<use x="272" y="40" xlink:href="#p" />
<use x="272" y="80" xlink:href="#p" />
<use x="272" y="96" xlink:href="#p" />
<use x="272" y="104" xlink:href="#p" />
<use x="272" y="112" xlink:href="#p" />
<use x="272" y="120" xlink:href="#p" />
<use x="272" y="144" xlink:href="#p" />
<use x="272" y="176" xlink:href="#p" />
<use x="272" y="192" xlink:href="#p" />
<use x="272" y="200" xlink:href="#p" />
<use x="272" y="208" xlink:href="#p" />
<use x="272" y="216" xlink:href="#p" />
<use x="272" y="296" xlink:href="#p" />
<use x="272" y="320" xlink:href="#p" />
<use x="272" y="336" xlink:href="#p" />
<use x="272" y="392" xlink:href="#p" />
<use x="272" y="400" xlink:href="#p" />
<use x="272" y="408" xlink:href="#p" />
<use x="272" y="416" xlink:href="#p" />
<use x="280" y="32" xlink:href="#p" />
<use x="280" y="56" xlink:href="#p" />
<use x="280" y="64" xlink:href="#p" />
<use x="280" y="72" xlink:href="#p" />
<use x="280" y="104" xlink:href="#p" />
<use x="280" y="128" xlink:href="#p" />
<use x="280" y="136" xlink:href="#p" />
<use x="280" y="152" xlink:href="#p" />
<use x="280" y="160" xlink:href="#p" />
<use x="280" y="168" xlink:href="#p" />
<use x="280" y="176" xlink:href="#p" />
<use x="280" y="208" xlink:href="#p" />
<use x="280" y="224" xlink:href="#p" />
<use x="280" y="232" xlink:href="#p" />
<use x="280" y="248" xlink:href="#p" />
<use x="280" y="264" xlink:href="#p" />
<use x="280" y="272" xlink:href="#p" />
<use x="280" y="296" xlink:href="#p" />
<use x="280" y="312" xlink:href="#p" />
<use x="280" y="320" xlink:href="#p" />
<use x="280" y="336" xlink:href="#p" />
<use x="280" y="344" xlink:href="#p" />
<use x="280" y="352" xlink:href="#p" />
<use x="280" y="360" xlink:href="#p" />
<use x="280" y="368" xlink:href="#p" />
<use x="280" y="376" xlink:href="#p" />
<use x="280" y="392" xlink:href="#p" />
<use x="280" y="416" xlink:href="#p" />
<use x="288" y="32" xlink:href="#p" />
<use x="288" y="48" xlink:href="#p" />
<use x="288" y="64" xlink:href="#p" />
<use x="288" y="80" xlink:href="#p" />
<use x="288" y="88" xlink:href="#p" />
<use x="288" y="112" xlink:href="#p" />
<use x="288" y="136" xlink:href="#p" />
<use x="288" y="144" xlink:href="#p" />
<use x="288" y="152" xlink:href="#p" />
<use x="288" y="160" xlink:href="#p" />
<use x="288" y="168" xlink:href="#p" />
<use x="288" y="184" xlink:href="#p" />
<use x="288" y="208" xlink:href="#p" />
<use x="288" y="216" xlink:href="#p" />
<use x="288" y="248" xlink:href="#p" />
<use x="288" y="256" xlink:href="#p" />
<use x="288" y="280" xlink:href="#p" />
<use x="288" y="296" xlink:href="#p" />
<use x="288" y="304" xlink:href="#p" />
<use x="288" y="352" xlink:href="#p" />
<use x="288" y="392" xlink:href="#p" />
<use x="288" y="400" xlink:href="#p" />
<use x="288" y="408" xlink:href="#p" />
<use x="296" y="40" xlink:href="#p" />
<use x="296" y="64" xlink:href="#p" />
<use x="296" y="96" xlink:href="#p" />
<use x="296" y="136" xlink:href="#p" />
<use x="296" y="152" xlink:href="#p" />
<use x="296" y="160" xlink:href="#p" />
<use x="296" y="168" xlink:href="#p" />
<use x="296" y="176" xlink:href="#p" />
<use x="296" y="200" xlink:href="#p" />
<use x="296" y="208" xlink:href="#p" />
<use x="296" y="216" xlink:href="#p" />
<use x="296" y="232" xlink:href="#p" />
<use x="296" y="248" xlink:href="#p" />
<use x="296" y="264" xlink:href="#p" />
<use x="296" y="280" xlink:href="#p" />
<use x="296" y="296" xlink:href="#p" />
<use x="296" y="304" xlink:href="#p" />
<use x="296" y="312" xlink:href="#p" />
<use x="296" y="320" xlink:href="#p" />
<use x="296" y="328" xlink:href="#p" />
<use x="296" y="336" xlink:href="#p" />
<use x="296" y="352" xlink:href="#p" />
<use x="296" y="360" xlink:href="#p" />
<use x="296" y="408" xlink:href="#p" />
<use x="296" y="416" xlink:href="#p" />
<use x="304" y="40" xlink:href="#p" />
<use x="304" y="48" xlink:href="#p" />
<use x="304" y="56" xlink:href="#p" />
<use x="304" y="72" xlink:href="#p" />
<use x="304" y="80" xlink:href="#p" />
<use x="304" y="88" xlink:href="#p" />
<use x="304" y="96" xlink:href="#p" />
<use x="304" y="112" xlink:href="#p" />
<use x="304" y="152" xlink:href="#p" />
<use x="304" y="168" xlink:href="#p" />
<use x="304" y="184" xlink:href="#p" />
<use x="304" y="192" xlink:href="#p" />
<use x="304" y="208" xlink:href="#p" />
<use x="304" y="216" xlink:href="#p" />
<use x="304" y="224" xlink:href="#p" />
<use x="304" y="240" xlink:href="#p" />
<use x="304" y="264" xlink:href="#p" />
<use x="304" y="280" xlink:href="#p" />
<use x="304" y="288" xlink:href="#p" />
<use x="304" y="304" xlink:href="#p" />
<use x="304" y="312" xlink:href="#p" />
<use x="304" y="320" xlink:href="#p" />
<use x="304" y="336" xlink:href="#p" />
<use x="304" y="360" xlink:href="#p" />
<use x="304" y="368" xlink:href="#p" />
<use x="304" y="376" xlink:href="#p" />
<use x="304" y="400" xlink:href="#p" />
<use x="304" y="408" xlink:href="#p" />
<use x="312" y="40" xlink:href="#p" />
<use x="312" y="48" xlink:href="#p" />
<use x="312" y="64" xlink:href="#p" />
<use x="312" y="72" xlink:href="#p" />
<use x="312" y="96" xlink:href="#p" />
<use x="312" y="112" xlink:href="#p" />
<use x="312" y="128" xlink:href="#p" />
<use x="312" y="144" xlink:href="#p" />
<use x="312" y="152" xlink:href="#p" />
<use x="312" y="200" xlink:href="#p" />
<use x="312" y="208" xlink:href="#p" />
<use x="312" y="216" xlink:href="#p" />
<use x="312" y="240" xlink:href="#p" />
<use x="312" y="264" xlink:href="#p" />
<use x="312" y="280" xlink:href="#p" />
<use x="312" y="288" xlink:href="#p" />
<use x="312" y="296" xlink:href="#p" />
<use x="312" y="312" xlink:href="#p" />
<use x="312" y="320" xlink:href="#p" />
<use x="312" y="360" xlink:href="#p" />
<use x="312" y="384" xlink:href="#p" />
<use x="312" y="408" xlink:href="#p" />
<use x="312" y="416" xlink:href="#p" />
<use x="320" y="32" xlink:href="#p" />
<use x="320" y="48" xlink:href="#p" />
<use x="320" y="56" xlink:href="#p" />
<use x="320" y="72" xlink:href="#p" />
<use x="320" y="80" xlink:href="#p" />
<use x="320" y="120" xlink:href="#p" />
<use x="320" y="128" xlink:href="#p" />
<use x="320" y="136" xlink:href="#p" />
<use x="320" y="152" xlink:href="#p" />
<use x="320" y="176" xlink:href="#p" />
<use x="320" y="184" xlink:href="#p" />
<use x="320" y="200" xlink:href="#p" />
<use x="320" y="216" xlink:href="#p" />
<use x="320" y="224" xlink:href="#p" />
<use x="320" y="248" xlink:href="#p" />
<use x="320" y="304" xlink:href="#p" />
<use x="320" y="320" xlink:href="#p" />
<use x="320" y="336" xlink:href="#p" />
<use x="320" y="344" xlink:href="#p" />
<use x="320" y="376" xlink:href="#p" />
<use x="320" y="416" xlink:href="#p" />
<use x="328" y="40" xlink:href="#p" />
<use x="328" y="48" xlink:href="#p" />
<use x="328" y="56" xlink:href="#p" />
<use x="328" y="64" xlink:href="#p" />
<use x="328" y="72" xlink:href="#p" />
<use x="328" y="104" xlink:href="#p" />
<use x="328" y="112" xlink:href="#p" />
<use x="328" y="128" xlink:href="#p" />
<use x="328" y="144" xlink:href="#p" />
<use x="328" y="200" xlink:href="#p" />
<use x="328" y="216" xlink:href="#p" />
<use x="328" y="232" xlink:href="#p" />
<use x="328" y="248" xlink:href="#p" />
<use x="328" y="256" xlink:href="#p" />
<use x="328" y="264" xlink:href="#p" />
<use x="328" y="272" xlink:href="#p" />
<use x="328" y="280" xlink:href="#p" />
<use x="328" y="296" xlink:href="#p" />
<use x="328" y="304" xlink:href="#p" />
<use x="328" y="328" xlink:href="#p" />
<use x="328" y="368" xlink:href="#p" />
<use x="328" y="392" xlink:href="#p" />
<use x="328" y="400" xlink:href="#p" />
<use x="328" y="408" xlink:href="#p" />
<use x="336" y="40" xlink:href="#p" />
<use x="336" y="72" xlink:href="#p" />
<use x="336" y="80" xlink:href="#p" />
<use x="336" y="88" xlink:href="#p" />
<use x="336" y="96" xlink:href="#p" />
<use x="336" y="136" xlink:href="#p" />
<use x="336" y="144" xlink:href="#p" />
<use x="336" y="152" xlink:href="#p" />
<use x="336" y="160" xlink:href="#p" />
<use x="336" y="176" xlink:href="#p" />
<use x="336" y="192" xlink:href="#p" />
<use x="336" y="208" xlink:href="#p" />
<use x="336" y="216" xlink:href="#p" />
<use x="336" y="232" xlink:href="#p" />
<use x="336" y="272" xlink:href="#p" />
<use x="336" y="280" xlink:href="#p" />
<use x="336" y="288" xlink:href="#p" />
<use x="336" y="328" xlink:href="#p" />
<use x="336" y="336" xlink:href="#p" />
<use x="336" y="344" xlink:href="#p" />
<use x="336" y="352" xlink:href="#p" />
<use x="336" y="368" xlink:href="#p" />
<use x="336" y="376" xlink:href="#p" />
<use x="336" y="384" xlink:href="#p" />
<use x="336" y="400" xlink:href="#p" />
<use x="336" y="408" xlink:href="#p" />
<use x="336" y="416" xlink:href="#p" />
<use x="344" y="40" xlink:href="#p" />
<use x="344" y="48" xlink:href="#p" />
<use x="344" y="56" xlink:href="#p" />
<use x="344" y="88" xlink:href="#p" />
<use x="344" y="96" xlink:href="#p" />
<use x="344" y="112" xlink:href="#p" />
<use x="344" y="128" xlink:href="#p" />
<use x="344" y="136" xlink:href="#p" />
<use x="344" y="144" xlink:href="#p" />
<use x="344" y="152" xlink:href="#p" />
<use x="344" y="168" xlink:href="#p" />
<use x="344" y="176" xlink:href="#p" />
<use x="344" y="192" xlink:href="#p" />
<use x="344" y="200" xlink:href="#p" />
<use x="344" y="216" xlink:href="#p" />
<use x="344" y="232" xlink:href="#p" />
<use x="344" y="264" xlink:href="#p" />
<use x="344" y="280" xlink:href="#p" />
<use x="344" y="312" xlink:href="#p" />
<use x="344" y="320" xlink:href="#p" />
<use x="344" y="328" xlink:href="#p" />
<use x="344" y="336" xlink:href="#p" />
<use x="344" y="344" xlink:href="#p" />
<use x="344" y="368" xlink:href="#p" />
<use x="344" y="376" xlink:href="#p" />
<use x="344" y="392" xlink:href="#p" />
<use x="344" y="400" xlink:href="#p" />
<use x="344" y="416" xlink:href="#p" />
<use x="352" y="32" xlink:href="#p" />
<use x="352" y="40" xlink:href="#p" />
<use x="352" y="48" xlink:href="#p" />
<use x="352" y="80" xlink:href="#p" />
<use x="352" y="88" xlink:href="#p" />
<use x="352" y="96" xlink:href="#p" />
<use x="352" y="112" xlink:href="#p" />
<use x="352" y="120" xlink:href="#p" />
<use x="352" y="168" xlink:href="#p" />
<use x="352" y="184" xlink:href="#p" />
<use x="352" y="208" xlink:href="#p" />
<use x="352" y="216" xlink:href="#p" />
<use x="352" y="224" xlink:href="#p" />
<use x="352" y="232" xlink:href="#p" />
<use x="352" y="240" xlink:href="#p" />
<use x="352" y="248" xlink:href="#p" />
<use x="352" y="256" xlink:href="#p" />
<use x="352" y="264" xlink:href="#p" />
<use x="352" y="280" xlink:href="#p" />
<use x="352" y="288" xlink:href="#p" />
<use x="352" y="320" xlink:href="#p" />
<use x="352" y="328" xlink:href="#p" />
<use x="352" y="336" xlink:href="#p" />
<use x="352" y="344" xlink:href="#p" />
<use x="352" y="352" xlink:href="#p" />
<use x="352" y="360" xlink:href="#p" />
<use x="352" y="368" xlink:href="#p" />
<use x="352" y="376" xlink:href="#p" />
<use x="352" y="384" xlink:href="#p" />
<use x="352" y="408" xlink:href="#p" />
<use x="352" y="416" xlink:href="#p" />
<use x="360" y="96" xlink:href="#p" />
<use x="360" y="104" xlink:href="#p" />
<use x="360" y="112" xlink:href="#p" />
<use x="360" y="120" xlink:href="#p" />
<use x="360" y="128" xlink:href="#p" />
<use x="360" y="144" xlink:href="#p" />
<use x="360" y="152" xlink:href="#p" />
<use x="360" y="160" xlink:href="#p" />
<use x="360" y="168" xlink:href="#p" />
<use x="360" y="192" xlink:href="#p" />
<use x="360" y="208" xlink:href="#p" />
<use x="360" y="240" xlink:href="#p" />
<use x="360" y="248" xlink:href="#p" />
<use x="360" y="272" xlink:href="#p" />
<use x="360" y="280" xlink:href="#p" />
<use x="360" y="296" xlink:href="#p" />
<use x="360" y="328" xlink:href="#p" />
<use x="360" y="336" xlink:href="#p" />
<use x="360" y="344" xlink:href="#p" />
<use x="360" y="352" xlink:href="#p" />
<use x="360" y="384" xlink:href="#p" />
<use x="360" y="392" xlink:href="#p" />
<use x="360" y="400" xlink:href="#p" />
<use x="360" y="408" xlink:href="#p" />
<use x="368" y="32" xlink:href="#p" />
<use x="368" y="40" xlink:href="#p" />
<use x="368" y="48" xlink:href="#p" />
<use x="368" y="56" xlink:href="#p" />
<use x="368" y="64" xlink:href="#p" />
<use x="368" y="72" xlink:href="#p" />
<use x="368" y="80" xlink:href="#p" />
<use x="368" y="104" xlink:href="#p" />
<use x="368" y="112" xlink:href="#p" />
<use x="368" y="176" xlink:href="#p" />
<use x="368" y="192" xlink:href="#p" />
<use x="368" y="200" xlink:href="#p" />
<use x="368" y="208" xlink:href="#p" />
<use x="368" y="224" xlink:href="#p" />
<use x="368" y="240" xlink:href="#p" />
<use x="368" y="256" xlink:href="#p" />
<use x="368" y="272" xlink:href="#p" />
<use x="368" y="280" xlink:href="#p" />
<use x="368" y="296" xlink:href="#p" />
<use x="368" y="344" xlink:href="#p" />
<use x="368" y="352" xlink:href="#p" />
<use x="368" y="368" xlink:href="#p" />
<use x="368" y="384" xlink:href="#p" />
<use x="376" y="32" xlink:href="#p" />
<use x="376" y="80" xlink:href="#p" />
<use x="376" y="104" xlink:href="#p" />
<use x="376" y="112" xlink:href="#p" />
<use x="376" y="136" xlink:href="#p" />
<use x="376" y="144" xlink:href="#p" />
<use x="376" y="160" xlink:href="#p" />
<use x="376" y="168" xlink:href="#p" />
<use x="376" y="208" xlink:href="#p" />
<use x="376" y="240" xlink:href="#p" />
<use x="376" y="256" xlink:href="#p" />
<use x="376" y="296" xlink:href="#p" />
<use x="376" y="304" xlink:href="#p" />
<use x="376" y="320" xlink:href="#p" />
<use x="376" y="328" xlink:href="#p" />
<use x="376" y="352" xlink:href="#p" />
<use x="376" y="384" xlink:href="#p" />
<use x="376" y="392" xlink:href="#p" />
<use x="376" y="408" xlink:href="#p" />
<use x="384" y="32" xlink:href="#p" />
<use x="384" y="48" xlink:href="#p" />
<use x="384" y="56" xlink:href="#p" />
<use x="384" y="64" xlink:href="#p" />
<use x="384" y="80" xlink:href="#p" />
<use x="384" y="96" xlink:href="#p" />
<use x="384" y="104" xlink:href="#p" />
<use x="384" y="112" xlink:href="#p" />
<use x="384" y="120" xlink:href="#p" />
<use x="384" y="152" xlink:href="#p" />
<use x="384" y="160" xlink:href="#p" />
<use x="384" y="208" xlink:href="#p" />
<use x="384" y="216" xlink:href="#p" />
<use x="384" y="224" xlink:href="#p" />
<use x="384" y="232" xlink:href="#p" />
<use x="384" y="240" xlink:href="#p" />
<use x="384" y="248" xlink:href="#p" />
<use x="384" y="256" xlink:href="#p" />
<use x="384" y="328" xlink:href="#p" />
<use x="384" y="352" xlink:href="#p" />
<use x="384" y="360" xlink:href="#p" />
<use x="384" y="368" xlink:href="#p" />
<use x="384" y="376" xlink:href="#p" />
<use x="384" y="384" xlink:href="#p" />
<use x="384" y="392" xlink:href="#p" />
<use x="384" y="400" xlink:href="#p" />
<use x="384" y="416" xlink:href="#p" />
<use x="392" y="32" xlink:href="#p" />
<use x="392" y="48" xlink:href="#p" />
<use x="392" y="56" xlink:href="#p" />
<use x="392" y="64" xlink:href="#p" />
<use x="392" y="80" xlink:href="#p" />
<use x="392" y="96" xlink:href="#p" />
<use x="392" y="104" xlink:href="#p" />
<use x="392" y="112" xlink:href="#p" />
<use x="392" y="120" xlink:href="#p" />
<use x="392" y="136" xlink:href="#p" />
<use x="392" y="176" xlink:href="#p" />
<use x="392" y="192" xlink:href="#p" />
<use x="392" y="208" xlink:href="#p" />
<use x="392" y="216" xlink:href="#p" />
<use x="392" y="224" xlink:href="#p" />
<use x="392" y="232" xlink:href="#p" />
<use x="392" y="272" xlink:href="#p" />
<use x="392" y="280" xlink:href="#p" />
<use x="392" y="288" xlink:href="#p" />
<use x="392" y="304" xlink:href="#p" />
<use x="392" y="328" xlink:href="#p" />
<use x="392" y="336" xlink:href="#p" />
<use x="392" y="344" xlink:href="#p" />
<use x="392" y="376" xlink:href="#p" />
<use x="392" y="384" xlink:href="#p" />
<use x="392" y="400" xlink:href="#p" />
<use x="392" y="408" xlink:href="#p" />
<use x="400" y="32" xlink:href="#p" />
<use x="400" y="48" xlink:href="#p" />
<use x="400" y="56" xlink:href="#p" />
<use x="400" y="64" xlink:href="#p" />
<use x="400" y="80" xlink:href="#p" />
<use x="400" y="96" xlink:href="#p" />
<use x="400" y="120" xlink:href="#p" />
<use x="400" y="160" xlink:href="#p" />
<use x="400" y="168" xlink:href="#p" />
<use x="400" y="208" xlink:href="#p" />
<use x="400" y="216" xlink:href="#p" />
<use x="400" y="272" xlink:href="#p" />
<use x="400" y="288" xlink:href="#p" />
<use x="400" y="312" xlink:href="#p" />
<use x="400" y="320" xlink:href="#p" />
<use x="400" y="352" xlink:href="#p" />
<use x="400" y="360" xlink:href="#p" />
<use x="400" y="368" xlink:href="#p" />
<use x="400" y="384" xlink:href="#p" />
<use x="400" y="392" xlink:href="#p" />
<use x="400" y="400" xlink:href="#p" />
<use x="400" y="408" xlink:href="#p" />
<use x="400" y="416" xlink:href="#p" />
<use x="408" y="32" xlink:href="#p" />
<use x="408" y="80" xlink:href="#p" />
<use x="408" y="104" xlink:href="#p" />
<use x="408" y="112" xlink:href="#p" />
<use x="408" y="160" xlink:href="#p" />
<use x="408" y="168" xlink:href="#p" />
<use x="408" y="176" xlink:href="#p" />
<use x="408" y="192" xlink:href="#p" />
<use x="408" y="200" xlink:href="#p" />
<use x="408" y="208" xlink:href="#p" />
<use x="408" y="216" xlink:href="#p" />
<use x="408" y="232" xlink:href="#p" />
<use x="408" y="248" xlink:href="#p" />
<use x="408" y="264" xlink:href="#p" />
<use x="408" y="280" xlink:href="#p" />
<use x="408" y="312" xlink:href="#p" />
<use x="408" y="320" xlink:href="#p" />
<use x="408" y="352" xlink:href="#p" />
<use x="408" y="368" xlink:href="#p" />
<use x="408" y="392" xlink:href="#p" />
<use x="408" y="400" xlink:href="#p" />
<use x="408" y="416" xlink:href="#p" />
<use x="416" y="32" xlink:href="#p" />
<use x="416" y="40" xlink:href="#p" />
<use x="416" y="48" xlink:href="#p" />
<use x="416" y="56" xlink:href="#p" />
<use x="416" y="64" xlink:href="#p" />
<use x="416" y="72" xlink:href="#p" />
<use x="416" y="80" xlink:href="#p" />
<use x="416" y="96" xlink:href="#p" />
<use x="416" y="120" xlink:href="#p" />
<use x="416" y="128" xlink:href="#p" />
<use x="416" y="136" xlink:href="#p" />
<use x="416" y="152" xlink:href="#p" />
<use x="416" y="176" xlink:href="#p" />
<use x="416" y="184" xlink:href="#p" />
<use x="416" y="192" xlink:href="#p" />
<use x="416" y="224" xlink:href="#p" />
<use x="416" y="232" xlink:href="#p" />
<use x="416" y="256" xlink:href="#p" />
<use x="416" y="264" xlink:href="#p" />
<use x="416" y="272" xlink:href="#p" />
<use x="416" y="320" xlink:href="#p" />
<use x="416" y="328" xlink:href="#p" />
<use x="416" y="344" xlink:href="#p" />
<use x="416" y="352" xlink:href="#p" />
<use x="416" y="360" xlink:href="#p" />
<use x="416" y="368" xlink:href="#p" />
<use x="416" y="384" xlink:href="#p" />
<use x="416" y="400" xlink:href="#p" />
<use x="416" y="416" xlink:href="#p" />
</g>
</svg>